<svg width="32" height="33" fill="none" xmlns="http://www.w3.org/2000/svg"><path d="M10 6.278c0-.43.586-.778 1-.778.414 0 1 .348 1 .778v1.555h-2V6.278zm10 0c0-.43.586-.778 1-.778.414 0 1 .348 1 .778v1.555h-2V6.278z" fill="#6E7491"/><path fill-rule="evenodd" clip-rule="evenodd" d="M10 7.833H7.75a.764.764 0 00-.75.778v17.111c0 .43.336.778.75.778h16.5c.414 0 .75-.348.75-.778V8.612a.764.764 0 00-.75-.779H10zM23.5 12.5h-15v12.444h15V12.5z" fill="#6E7491"/><path d="M10 16a1.5 1.5 0 113 0 1.5 1.5 0 01-3 0zm12 3a1.5 1.5 0 10-3 0 1.5 1.5 0 003 0z" fill="#6E7491"/></svg>