<svg width="17" height="17" fill="none" xmlns="http://www.w3.org/2000/svg"><path d="M8.242.683a.5.5 0 01.85 0l2.483 3.994a.5.5 0 00.304.221l4.566 1.128a.5.5 0 01.263.808l-3.031 3.596a.5.5 0 00-.117.358l.339 4.691a.5.5 0 01-.687.5l-4.357-1.772a.5.5 0 00-.377 0l-4.356 1.771a.5.5 0 01-.688-.499l.34-4.691a.5.5 0 00-.117-.358L.625 6.834a.5.5 0 01.263-.808l4.566-1.128a.5.5 0 00.305-.22L8.242.682z" fill="url(#paint0_linear)"/><defs><linearGradient id="paint0_linear" x1="8.667" y1="0" x2="8.667" y2="18" gradientUnits="userSpaceOnUse"><stop stop-color="#605DEC"/><stop offset="1" stop-color="#2A26D9"/></linearGradient></defs></svg>