<svg width="17" height="17" fill="none" xmlns="http://www.w3.org/2000/svg"><path d="M8.102 13.28h0L4.49 14.75l.28-3.889a1.5 1.5 0 00-.349-1.075l-2.513-2.98 3.786-.936a1.5 1.5 0 00.914-.664l2.059-3.311 2.058 3.311.85-.528-.85.528a1.5 1.5 0 00.915.664l3.785.935-2.513 2.981a1.5 1.5 0 00-.35 1.075l.282 3.889-3.612-1.469-.377.927.377-.927a1.5 1.5 0 00-1.13 0zM1.128 6.997h0s0 0 0 0l-.12-.486.12.486z" stroke="url(#paint0_linear)" stroke-width="2"/><defs><linearGradient id="paint0_linear" x1="8.667" y1="0" x2="8.667" y2="18" gradientUnits="userSpaceOnUse"><stop stop-color="#605DEC"/><stop offset="1" stop-color="#2A26D9"/></linearGradient></defs></svg>